<svg viewBox="0 0 400 500" xmlns="http://www.w3.org/2000/svg">
  <!-- Background -->
  <rect width="400" height="500" fill="#ffffff"/>
  
  <!-- Header Border -->
  <rect x="0" y="0" width="400" height="3" fill="#374151"/>
  
  <!-- Name Section -->
  <rect x="30" y="30" width="200" height="18" rx="2" fill="#1f2937"/>
  <rect x="30" y="58" width="150" height="12" rx="2" fill="#6b7280"/>
  
  <!-- Contact Info -->
  <rect x="30" y="85" width="100" height="8" rx="2" fill="#9ca3af"/>
  <rect x="140" y="85" width="100" height="8" rx="2" fill="#9ca3af"/>
  <rect x="250" y="85" width="100" height="8" rx="2" fill="#9ca3af"/>
  
  <!-- Divider -->
  <rect x="30" y="110" width="340" height="1" fill="#e5e7eb"/>
  
  <!-- Professional Summary -->
  <rect x="30" y="130" width="120" height="14" rx="2" fill="#1f2937"/>
  <rect x="30" y="155" width="340" height="6" rx="2" fill="#9ca3af"/>
  <rect x="30" y="167" width="320" height="6" rx="2" fill="#9ca3af"/>
  <rect x="30" y="179" width="300" height="6" rx="2" fill="#9ca3af"/>
  
  <!-- Work Experience -->
  <rect x="30" y="210" width="140" height="14" rx="2" fill="#1f2937"/>
  
  <!-- Job 1 -->
  <rect x="30" y="240" width="180" height="12" rx="2" fill="#374151"/>
  <rect x="270" y="242" width="100" height="10" rx="2" fill="#6b7280"/>
  <rect x="30" y="260" width="150" height="8" rx="2" fill="#6b7280"/>
  <rect x="30" y="275" width="340" height="5" rx="2" fill="#d1d5db"/>
  <rect x="30" y="285" width="320" height="5" rx="2" fill="#d1d5db"/>
  <rect x="30" y="295" width="300" height="5" rx="2" fill="#d1d5db"/>
  
  <!-- Job 2 -->
  <rect x="30" y="315" width="180" height="12" rx="2" fill="#374151"/>
  <rect x="270" y="317" width="100" height="10" rx="2" fill="#6b7280"/>
  <rect x="30" y="335" width="150" height="8" rx="2" fill="#6b7280"/>
  <rect x="30" y="350" width="340" height="5" rx="2" fill="#d1d5db"/>
  <rect x="30" y="360" width="320" height="5" rx="2" fill="#d1d5db"/>
  
  <!-- Education -->
  <rect x="30" y="390" width="100" height="14" rx="2" fill="#1f2937"/>
  <rect x="30" y="415" width="200" height="10" rx="2" fill="#374151"/>
  <rect x="30" y="432" width="150" height="8" rx="2" fill="#6b7280"/>
  <rect x="270" y="432" width="80" height="8" rx="2" fill="#6b7280"/>
  
  <!-- Bottom border -->
  <rect x="0" y="497" width="400" height="3" fill="#374151"/>
</svg>